
<svg width="260" height="264"
  xmlns="http://www.w3.org/2000/svg"
  xmlns:xlink="http://www.w3.org/1999/xlink">
  <defs>
    <path id="a" d="M0 .349h28.244v31.947H0z"/>
    <path id="c" d="M0 264.651h259.948V1H0z"/>
  </defs>
  <g transform="translate(0 -1)" fill="none" fill-rule="evenodd">
    <path d="M15.93 176.127h5.8c-.402 3.213-2.767 5.935-7.005 5.935-5.22 0-8.835-3.48-8.835-10.62 0-6.96 3.658-10.619 8.97-10.619 3.082 0 5.414 1.502 7.025 4.506h5.958c-1.65-5.934-6.247-9.86-12.984-9.86-4.15 0-7.63 1.383-10.53 4.195C1.428 162.474 0 166.4 0 171.442c0 5.041 1.383 8.968 4.195 11.78 2.81 2.81 6.202 4.194 10.217 4.194 3.436 0 5.935-1.25 7.585-3.704h.893l.49 3.347h4.864v-15.751H15.93v4.819z" fill="#000"/>
    <g transform="translate(0 .651)">
      <mask id="b" fill="#fff">
        <use xlink:href="#a"/>
      </mask>
      <path d="M14.123 6.01c-2.37 0-4.322.866-5.901 2.6-1.538 1.732-2.328 4.29-2.328 7.712 0 3.423.79 5.98 2.328 7.713 1.579 1.733 3.532 2.6 5.9 2.6 2.37 0 4.323-.867 5.86-2.6 1.579-1.733 2.37-4.29 2.37-7.713s-.791-5.98-2.37-7.713c-1.537-1.733-3.49-2.6-5.86-2.6m0-5.66c5.178 0 9.5 2.097 12.11 7.05 1.329 2.453 2.012 5.443 2.012 8.923 0 6.96-2.953 12.047-7.104 14.323-2.096 1.115-4.407 1.651-7.018 1.651-5.178 0-9.457-2.098-12.153-7.05C.642 22.792 0 19.802 0 16.322 0 9.362 2.952 4.23 7.104 2.044 9.2.928 11.512.348 14.123.348" fill="currentColor" mask="url(#b)"/>
    </g>
    <path d="M15.974 90.995c2.454 0 3.66-1.16 3.66-3.525s-1.206-3.525-3.66-3.525H5.8v7.05h10.174zm3.614 4.864l8.657 13.966h-6.47L13.386 96.35H5.8v13.476H0V78.591h15.93c6.067 0 9.504 3.525 9.504 8.88 0 4.15-2.098 7.272-5.846 8.388zM13.672 240.735l-3.499 10.843h7.897l-3.499-10.843h-.899zm6.128 16.197H8.445l-2.376 7.362H0l10.41-31.233h7.26l10.574 31.233h-6.078l-2.366-7.362z" fill="#000"/>
    <mask id="d" fill="#fff">
      <use xlink:href="#c"/>
    </mask>
    <path fill="currentColor" mask="url(#d)" d="M165.691 264.294h5.801v-31.233h-5.801zM83.927 243.68h-.893v20.614h-5.799V233.06h7.004l14.547 20.615h.892V233.06h5.801v31.234h-7.005zM246.758 259.297c-2.593 0-4.775-.893-6.504-2.722-1.683-1.83-2.547-4.462-2.547-7.898 0-3.435.864-6.068 2.547-7.897 1.73-1.83 3.911-2.722 6.504-2.722 3.36 0 5.756 1.383 7.251 4.116h5.895l.043-.011c-1.5-6.024-6.276-9.46-13.189-9.46-4.229 0-7.777 1.428-10.688 4.24-2.912 2.81-4.367 6.737-4.367 11.734 0 4.998 1.455 8.924 4.367 11.735 2.911 2.81 6.46 4.239 10.688 4.239 6.913 0 11.688-3.436 13.19-9.46l-.027-.006h-5.914c-1.496 2.73-3.892 4.112-7.249 4.112"/>
  </g>
</svg>