<svg width="147" height="116"
  xmlns="http://www.w3.org/2000/svg"
  xmlns:xlink="http://www.w3.org/1999/xlink">
  <defs>
    <path id="a" d="M0 .301h12.661v13.553H0z"/>
    <path id="c" d="M.314.336h12.66V14H.315z"/>
    <path id="e" d="M0 116h148V1H0z"/>
  </defs>
  <g fill="none" fill-rule="evenodd">
    <g opacity=".1" stroke="#000" stroke-linecap="square" stroke-linejoin="round">
      <path d="M-27-49H76V54H-27zM76-49h103V54H76z"/>
      <g>
        <path d="M-27 54H76v103H-27zM76 54h103v103H76z"/>
      </g>
    </g>
    <path d="M-28-51h204v205H-28z" fill="#FFF"/>
    <g>
      <path d="M74.768 77.053h2.464c-.17 1.407-1.175 2.6-2.976 2.6-2.218 0-3.754-1.525-3.754-4.653 0-3.05 1.555-4.654 3.81-4.654 1.31 0 2.302.658 2.987 1.975h2.53c-.7-2.6-2.654-4.321-5.516-4.321-1.763 0-3.242.606-4.474 1.838C68.607 71.07 68 72.79 68 75s.588 3.93 1.782 5.162C70.976 81.393 72.417 82 74.123 82c1.46 0 2.522-.547 3.223-1.623h.38l.208 1.467H80V74.94h-5.232v2.112z" fill="#000"/>
      <mask id="b" fill="#fff">
        <use xlink:href="#a"/>
      </mask>
      <path d="M6.33 2.703c-1.061 0-1.937.367-2.645 1.103-.69.735-1.043 1.82-1.043 3.272 0 1.452.354 2.536 1.043 3.272.708.735 1.584 1.103 2.646 1.103 1.061 0 1.937-.368 2.626-1.103.708-.736 1.062-1.82 1.062-3.272 0-1.453-.354-2.537-1.062-3.272-.689-.736-1.565-1.103-2.626-1.103M6.33.3c2.32 0 4.258.89 5.429 2.99.594 1.042.901 2.31.901 3.787 0 2.953-1.324 5.11-3.184 6.076-.94.473-1.976.7-3.146.7-2.322 0-4.24-.89-5.448-2.99C.288 9.821 0 8.553 0 7.077c0-2.953 1.324-5.13 3.185-6.058C4.125.547 5.16.301 6.33.301" fill="#000" mask="url(#b)"/>
      <path d="M40.787 39.56c1.043 0 1.555-.52 1.555-1.58s-.512-1.58-1.555-1.58h-4.322v3.16h4.322zm1.535 2.18L46 48h-2.749l-3.563-6.04h-3.223V48H34V34h6.768c2.578 0 4.038 1.58 4.038 3.98 0 1.86-.891 3.26-2.484 3.76z" fill="#000"/>
      <g transform="translate(101 102)">
        <mask id="d" fill="#fff">
          <use xlink:href="#c"/>
        </mask>
        <path d="M6.443 3.693L4.874 8.436h3.54L6.846 3.693h-.403zm2.746 7.086H4.1L3.036 14H.314L4.98.336h3.255L12.975 14H10.25l-1.06-3.22z" fill="#000" mask="url(#d)"/>
      </g>
      <mask id="f" fill="#fff">
        <use xlink:href="#e"/>
      </mask>
      <path fill="#000" mask="url(#f)" d="M106 48h3V34h-3zM70.843 4.76h-.38V14H68V0h2.976l6.18 9.24h.38V0H80v14h-2.976zM141.396 79.654c-1.101 0-2.03-.392-2.763-1.193-.715-.802-1.083-1.955-1.083-3.46 0-1.507.368-2.66 1.083-3.462.734-.801 1.662-1.193 2.763-1.193 1.427 0 2.446.607 3.08 1.804h2.505l.019-.005c-.638-2.64-2.666-4.145-5.604-4.145-1.797 0-3.304.626-4.541 1.858C135.618 71.089 135 72.81 135 75c0 2.19.618 3.91 1.855 5.142 1.237 1.232 2.744 1.858 4.541 1.858 2.938 0 4.966-1.506 5.604-4.145l-.011-.003h-2.513c-.636 1.196-1.654 1.802-3.08 1.802"/>
    </g>
  </g>
</svg>