<svg width="99" height="102"
  xmlns="http://www.w3.org/2000/svg"
  xmlns:xlink="http://www.w3.org/1999/xlink">
  <defs>
    <path id="a" d="M.258.32H15.84v17.425H.258z"/>
    <path id="c" d="M0 .32h15.583v17.425H0z"/>
    <path id="e" d="M0 102h99V1H0z"/>
  </defs>
  <g fill="none" fill-rule="evenodd">
    <g transform="translate(83)">
      <mask id="b" fill="#fff">
        <use xlink:href="#a"/>
      </mask>
      <path d="M9.046 11.588h3.2c-.221 1.752-1.526 3.237-3.865 3.237-2.88 0-4.874-1.898-4.874-5.792 0-3.797 2.018-5.793 4.948-5.793 1.701 0 2.988.82 3.877 2.458h3.287C14.708 2.462 12.173.32 8.455.32c-2.29 0-4.21.754-5.81 2.288C1.045 4.14.258 6.282.258 9.033c0 2.75.763 4.891 2.313 6.425 1.551 1.533 3.422 2.287 5.638 2.287 1.895 0 3.274-.681 4.185-2.02h.492l.27 1.826h2.684V8.96H9.046v2.628z" fill="#000" mask="url(#b)"/>
    </g>
    <mask id="d" fill="#fff">
      <use xlink:href="#c"/>
    </mask>
    <path d="M7.791 3.407c-1.307 0-2.384.473-3.255 1.418-.849.946-1.285 2.34-1.285 4.208 0 1.867.436 3.26 1.285 4.207.87.945 1.948 1.417 3.255 1.417s2.385-.472 3.233-1.417c.872-.946 1.307-2.34 1.307-4.207 0-1.868-.435-3.262-1.307-4.208-.848-.945-1.926-1.418-3.233-1.418m0-3.088c2.857 0 5.242 1.145 6.682 3.846.732 1.338 1.11 2.97 1.11 4.868 0 3.796-1.63 6.57-3.92 7.812-1.157.608-2.432.9-3.872.9-2.856 0-5.217-1.144-6.705-3.845C.354 12.562 0 10.93 0 9.033c0-3.797 1.63-6.596 3.92-7.788C5.075.635 6.35.319 7.79.319" fill="#000" mask="url(#d)"/>
    <path d="M50.484 7.751c1.303 0 1.943-.63 1.943-1.918 0-1.287-.64-1.919-1.943-1.919H45.08v3.837h5.404zm1.919 2.647L57 18h-3.436l-4.455-7.334H45.08V18H42V1h8.46c3.222 0 5.047 1.919 5.047 4.833 0 2.259-1.114 3.958-3.104 4.565zM49.261 47.177l-1.858 5.901h4.194l-1.858-5.9h-.478zm3.254 8.815h-6.03L45.223 60H42l5.528-17h3.856L57 60h-3.228l-1.257-4.008z" fill="#000"/>
    <mask id="f" fill="#fff">
      <use xlink:href="#e"/>
    </mask>
    <path fill="#000" mask="url(#f)" d="M48 102h3V85h-3zM3.554 90.78H3.08V102H0V85h3.72l7.726 11.22h.474V85H15v17h-3.72zM91.995 99.15c-1.376 0-2.536-.474-3.454-1.448-.894-.973-1.353-2.374-1.353-4.202 0-1.828.46-3.23 1.353-4.203.918-.973 2.078-1.448 3.454-1.448 1.784 0 3.057.736 3.851 2.19h3.131l.023-.005C98.203 86.828 95.667 85 91.995 85c-2.246 0-4.13.76-5.676 2.255C84.773 88.751 84 90.841 84 93.5c0 2.66.773 4.749 2.319 6.245 1.545 1.496 3.43 2.255 5.676 2.255 3.672 0 6.208-1.828 7.005-5.034l-.014-.003h-3.14c-.795 1.453-2.068 2.188-3.85 2.188"/>
  </g>
</svg>